<svg width="40" height="40" viewBox="0 0 40 40" fill="none" xmlns="http://www.w3.org/2000/svg">
<rect x="0.75" y="0.75" width="38.5" height="38.5" stroke="#0BF876" stroke-width="1.5"/>
<path d="M11.7451 25.18C10.9551 25.18 10.2551 25.015 9.64508 24.685C9.03508 24.355 8.55508 23.885 8.20508 23.275C7.85508 22.655 7.68008 21.92 7.68008 21.07V14.5H9.46508V21.19C9.46508 21.64 9.55508 22.045 9.73508 22.405C9.92508 22.765 10.1901 23.055 10.5301 23.275C10.8801 23.495 11.2851 23.605 11.7451 23.605C12.2151 23.605 12.6201 23.495 12.9601 23.275C13.3001 23.055 13.5601 22.765 13.7401 22.405C13.9301 22.045 14.0251 21.64 14.0251 21.19V14.5H15.8251V21.19C15.8251 21.64 15.9151 22.045 16.0951 22.405C16.2851 22.765 16.5501 23.055 16.8901 23.275C17.2301 23.495 17.6351 23.605 18.1051 23.605C18.5751 23.605 18.9801 23.495 19.3201 23.275C19.6601 23.055 19.9201 22.765 20.1001 22.405C20.2901 22.045 20.3851 21.64 20.3851 21.19V14.5H22.1701V21.07C22.1701 21.92 21.9951 22.655 21.6451 23.275C21.2951 23.885 20.8151 24.355 20.2051 24.685C19.5951 25.015 18.8951 25.18 18.1051 25.18C17.4351 25.18 16.8201 25.045 16.2601 24.775C15.7101 24.495 15.2651 24.085 14.9251 23.545C14.5851 24.075 14.1351 24.48 13.5751 24.76C13.0251 25.04 12.4151 25.18 11.7451 25.18ZM24.9556 25V23.425H29.4706C29.8906 23.425 30.2356 23.275 30.5056 22.975C30.7856 22.675 30.9256 22.335 30.9256 21.955C30.9256 21.555 30.7906 21.215 30.5206 20.935C30.2506 20.645 29.9106 20.5 29.5006 20.5H27.6256C27.0356 20.5 26.5056 20.38 26.0356 20.14C25.5756 19.89 25.2106 19.545 24.9406 19.105C24.6706 18.665 24.5356 18.145 24.5356 17.545C24.5356 16.955 24.6656 16.43 24.9256 15.97C25.1856 15.51 25.5406 15.15 25.9906 14.89C26.4406 14.63 26.9506 14.5 27.5206 14.5H32.0356V16.075H27.6856C27.2856 16.075 26.9556 16.215 26.6956 16.495C26.4456 16.775 26.3206 17.095 26.3206 17.455C26.3206 17.825 26.4456 18.145 26.6956 18.415C26.9456 18.685 27.2706 18.82 27.6706 18.82H29.5906C30.2306 18.82 30.7806 18.945 31.2406 19.195C31.7106 19.445 32.0706 19.79 32.3206 20.23C32.5806 20.67 32.7106 21.175 32.7106 21.745C32.7106 22.415 32.5756 22.995 32.3056 23.485C32.0456 23.965 31.6856 24.34 31.2256 24.61C30.7756 24.87 30.2656 25 29.6956 25H24.9556Z" fill="#D3D3D3"/>
</svg>
