<svg width="40" height="40" viewBox="0 0 40 40" fill="none" xmlns="http://www.w3.org/2000/svg">
<rect width="40" height="40" fill="#040402"/>
<path d="M9.92859 27.228C8.88992 27.228 7.96526 27.019 7.15459 26.601C6.34392 26.1703 5.71059 25.556 5.25459 24.758C4.79859 23.96 4.57059 23.0163 4.57059 21.927V13.7H7.70559V22.041C7.70559 22.725 7.90192 23.3013 8.29459 23.77C8.69992 24.2387 9.24459 24.473 9.92859 24.473C10.6126 24.473 11.1509 24.2387 11.5436 23.77C11.9489 23.3013 12.1516 22.725 12.1516 22.041V13.7H15.2866V22.041C15.2866 22.725 15.4829 23.3013 15.8756 23.77C16.2809 24.2387 16.8256 24.473 17.5096 24.473C18.1936 24.473 18.7319 24.2387 19.1246 23.77C19.5299 23.3013 19.7326 22.725 19.7326 22.041V13.7H22.8676V21.927C22.8676 23.0163 22.6396 23.96 22.1836 24.758C21.7276 25.556 21.0943 26.1703 20.2836 26.601C19.4856 27.019 18.5609 27.228 17.5096 27.228C16.7243 27.228 16.0086 27.095 15.3626 26.829C14.7166 26.5503 14.1656 26.1513 13.7096 25.632C13.2409 26.1387 12.6836 26.5313 12.0376 26.81C11.4043 27.0887 10.7013 27.228 9.92859 27.228ZM25.7041 27V24.34H31.3851C31.7524 24.34 32.0691 24.207 32.3351 23.941C32.6011 23.6623 32.7341 23.3457 32.7341 22.991C32.7341 22.611 32.6011 22.288 32.3351 22.022C32.0691 21.756 31.7524 21.623 31.3851 21.623H29.3331C28.5604 21.623 27.8574 21.471 27.2241 21.167C26.5907 20.8503 26.0841 20.4007 25.7041 19.818C25.3367 19.2353 25.1531 18.5323 25.1531 17.709C25.1531 16.911 25.3304 16.2143 25.6851 15.619C26.0524 15.011 26.5337 14.5423 27.1291 14.213C27.7371 13.871 28.4084 13.7 29.1431 13.7H35.0141V16.36H29.5041C29.1494 16.36 28.8581 16.4867 28.6301 16.74C28.4021 16.9807 28.2881 17.272 28.2881 17.614C28.2881 17.956 28.4021 18.2473 28.6301 18.488C28.8581 18.7287 29.1494 18.849 29.5041 18.849H31.6511C32.4871 18.849 33.2217 19.0137 33.8551 19.343C34.4884 19.6597 34.9761 20.1093 35.3181 20.692C35.6727 21.262 35.8501 21.9333 35.8501 22.706C35.8501 23.618 35.6664 24.397 35.2991 25.043C34.9444 25.6763 34.4631 26.164 33.8551 26.506C33.2471 26.8353 32.5757 27 31.8411 27H25.7041Z" fill="white"/>
</svg>
